<?xml version="1.0" encoding="utf-8"?>
<!-- Generator: Adobe Illustrator 15.1.0, SVG Export Plug-In  -->
<!DOCTYPE svg PUBLIC "-//W3C//DTD SVG 1.0//EN" "http://www.w3.org/TR/2001/REC-SVG-20010904/DTD/svg10.dtd" [
	<!ENTITY ns_flows "http://ns.adobe.com/Flows/1.0/">
]>
<svg version="1.0"
	 xmlns="http://www.w3.org/2000/svg" xmlns:xlink="http://www.w3.org/1999/xlink" xmlns:a="http://ns.adobe.com/AdobeSVGViewerExtensions/3.0/"
	 x="0px" y="0px" width="386px" height="208px" viewBox="0 0 386 208" enable-background="new 0 0 386 208" xml:space="preserve">
<defs>
</defs>
<polygon id="arrow_x5F_right_x5F_grey_1_" fill="#7D7D7D" points="0.707,16.854 0,16.146 7.646,8.5 0,0.854 0.707,0.146 9.061,8.5 
	"/>
<polygon id="arrow_x5F_right_x5F_white_1_" fill="#FFFFFF" points="12.707,16.777 12,16.07 19.57,8.5 12,0.93 12.707,0.223 
	20.984,8.5 "/>
<polygon id="arrow_x5F_right_x5F_grey_x5F_light_1_" fill="#D3D3D3" points="177.707,16.555 177,15.848 184.57,8.277 177,0.707 
	177.707,0 185.984,8.277 "/>
<path id="check_x5F_off_1_" fill="#7D7D7D" d="M40.553,16.698H27.32c-0.728,0-1.32-0.592-1.32-1.32V2.146
	c0-0.728,0.592-1.32,1.32-1.32h13.232c0.728,0,1.32,0.592,1.32,1.32v13.232C41.873,16.106,41.281,16.698,40.553,16.698z
	 M27.32,1.575c-0.314,0-0.57,0.256-0.57,0.57v13.232c0,0.314,0.256,0.57,0.57,0.57h13.232c0.314,0,0.57-0.256,0.57-0.57V2.146
	c0-0.314-0.256-0.57-0.57-0.57H27.32z"/>
<path fill="#7D7D7D" d="M60.553,16.698H47.32c-0.728,0-1.32-0.592-1.32-1.32V2.146c0-0.728,0.592-1.32,1.32-1.32h13.232
	c0.728,0,1.32,0.592,1.32,1.32v13.232C61.873,16.106,61.281,16.698,60.553,16.698z M47.32,1.575c-0.314,0-0.57,0.256-0.57,0.57
	v13.232c0,0.314,0.256,0.57,0.57,0.57h13.232c0.314,0,0.57-0.256,0.57-0.57V2.146c0-0.314-0.256-0.57-0.57-0.57H47.32z"/>
<polygon fill="#7D7D7D" points="58.321,5.084 57.614,4.377 53.937,8.055 50.259,4.377 49.552,5.084 53.229,8.762 49.552,12.439 
	50.259,13.146 53.937,9.469 57.614,13.146 58.321,12.439 54.644,8.762 "/>
<polygon id="cross_x5F_grey_1_" fill="#7D7D7D" points="176.281,170.942 175.397,170.058 167.141,178.315 158.884,170.058 
	158,170.942 166.257,179.199 158,187.456 158.884,188.339 167.141,180.083 175.397,188.339 176.281,187.456 168.024,179.199 "/>
<polygon id="cross_x5F_white_1_" fill="#FFFFFF" points="206.281,170.942 205.397,170.058 197.141,178.315 188.884,170.058 
	188,170.942 196.257,179.199 188,187.456 188.884,188.339 197.141,180.083 205.397,188.339 206.281,187.456 198.024,179.199 "/>
<path fill="#CAD334" d="M71.781,2.082c2.702,0,4.899,2.198,4.899,4.899c0,2.701-2.198,4.899-4.899,4.899s-4.899-2.198-4.899-4.899
	C66.882,4.28,69.08,2.082,71.781,2.082 M71.781,1.2C68.588,1.2,66,3.788,66,6.981c0,3.193,2.588,5.781,5.781,5.781
	s5.781-2.588,5.781-5.781C77.563,3.788,74.974,1.2,71.781,1.2L71.781,1.2z"/>
<path fill="#CAD334" d="M71.594,8.482c0-0.396,0.049-0.711,0.147-0.946c0.098-0.235,0.292-0.493,0.582-0.774
	c0.29-0.281,0.473-0.481,0.551-0.601c0.119-0.181,0.178-0.377,0.178-0.588c0-0.279-0.069-0.492-0.208-0.639
	s-0.341-0.221-0.609-0.221c-0.255,0-0.461,0.072-0.618,0.216c-0.156,0.144-0.234,0.338-0.234,0.584h-1.084
	c0.006-0.526,0.186-0.943,0.538-1.25c0.353-0.307,0.818-0.46,1.398-0.46c0.598,0,1.064,0.152,1.398,0.456
	c0.334,0.303,0.501,0.728,0.501,1.272c0,0.485-0.226,0.963-0.678,1.433l-0.548,0.54c-0.196,0.223-0.297,0.549-0.304,0.978H71.594z
	 M71.519,9.867c0-0.175,0.055-0.316,0.165-0.424c0.11-0.108,0.259-0.162,0.446-0.162c0.19,0,0.34,0.056,0.451,0.167
	c0.11,0.111,0.165,0.251,0.165,0.42c0,0.163-0.054,0.299-0.161,0.409s-0.259,0.165-0.455,0.165s-0.347-0.055-0.453-0.165
	S71.519,10.03,71.519,9.867z"/>
<path fill="#FFFFFF" d="M161.293,8.482c0-0.396,0.049-0.711,0.147-0.946c0.098-0.235,0.292-0.493,0.582-0.774
	c0.29-0.281,0.473-0.481,0.551-0.601c0.119-0.181,0.178-0.377,0.178-0.588c0-0.279-0.069-0.492-0.208-0.639
	s-0.341-0.221-0.609-0.221c-0.255,0-0.461,0.072-0.618,0.216c-0.156,0.144-0.234,0.338-0.234,0.584H160
	c0.006-0.526,0.186-0.943,0.538-1.25c0.353-0.307,0.818-0.46,1.398-0.46c0.598,0,1.064,0.152,1.398,0.456
	c0.334,0.303,0.501,0.728,0.501,1.272c0,0.485-0.226,0.963-0.678,1.433l-0.548,0.54c-0.196,0.223-0.297,0.549-0.304,0.978H161.293z
	 M161.218,9.867c0-0.175,0.055-0.316,0.165-0.424c0.11-0.108,0.259-0.162,0.446-0.162c0.19,0,0.34,0.056,0.451,0.167
	c0.11,0.111,0.165,0.251,0.165,0.42c0,0.163-0.054,0.299-0.161,0.409s-0.259,0.165-0.455,0.165s-0.347-0.055-0.453-0.165
	S161.218,10.03,161.218,9.867z"/>
<path fill="#FFFFFF" d="M162.132,2.082c2.702,0,4.899,2.198,4.899,4.899c0,2.701-2.198,4.899-4.899,4.899s-4.899-2.198-4.899-4.899
	C157.232,4.28,159.43,2.082,162.132,2.082 M162.132,1.2c-3.193,0-5.781,2.588-5.781,5.781c0,3.193,2.588,5.781,5.781,5.781
	s5.781-2.588,5.781-5.781C167.913,3.788,165.325,1.2,162.132,1.2L162.132,1.2z"/>
<path id="person_1_" fill="#AFB72D" d="M61.333,66.956l0.199,0.098c2.22,1.483,4.124,3.147,5.685,4.958
	c4.295,4.985,6.473,11.248,6.473,18.618v6.79H75v-6.79c0-14.075-8.043-24.681-22.067-29.096l-0.804-0.253l0.612-0.578
	c4.466-4.209,6.925-9.919,6.925-16.078c0-12.199-9.925-22.125-22.125-22.125l-0.07,0c-5.907,0-11.464,2.304-15.649,6.487
	c-4.184,4.183-6.489,9.737-6.489,15.637c0,6.159,2.459,11.869,6.924,16.078l0.614,0.578l-0.804,0.253C8.043,65.949,0,76.555,0,90.63
	v6.79h58.475v-1.312H1.312V90.63c0-7.371,2.178-13.635,6.474-18.618c1.561-1.811,3.464-3.474,5.657-4.943l0.416-0.278l0.019,0.028
	c3.09-2.01,6.677-3.56,10.664-4.609l1.282-0.336l-1.046-0.815c-5.113-3.98-8.046-9.97-8.046-16.434
	c0-11.452,9.317-20.787,20.769-20.812c11.453,0.024,20.771,9.36,20.771,20.812c0,6.465-2.933,12.454-8.047,16.434l-1.045,0.815
	l1.283,0.336C54.537,63.283,58.195,64.879,61.333,66.956z"/>
<polygon fill="#AFB72D" points="117.764,74.809 86,52.831 117.764,30.853 118.475,31.881 88.197,52.831 118.475,73.781 "/>
<polygon fill="#AFB72D" points="154.823,74.809 154.112,73.781 184.388,52.831 154.112,31.881 154.823,30.853 186.585,52.831 "/>
<rect x="135.837" y="19.469" transform="matrix(0.9067 0.4217 -0.4217 0.9067 34.659 -52.6997)" fill="#AFB72D" width="1.25" height="65.062"/>
<linearGradient id="SVGID_1_" gradientUnits="userSpaceOnUse" x1="-128.9106" y1="3.3442" x2="-128.7515" y2="10.8248" gradientTransform="matrix(-1 0 0 1 -34.7422 0)">
	<stop  offset="0" style="stop-color:#FFFFFF"/>
	<stop  offset="0.3321" style="stop-color:#FCFCFC"/>
	<stop  offset="0.5924" style="stop-color:#F2F3F3"/>
	<stop  offset="0.8277" style="stop-color:#E1E3E3"/>
	<stop  offset="1" style="stop-color:#D0D2D3"/>
</linearGradient>
<polygon fill="url(#SVGID_1_)" points="90.209,10.976 92.108,10.976 98,1.752 96.239,1.65 "/>
<polygon fill="#FFFFFF" points="90.194,10.976 92.007,10.976 88.991,6.476 87.179,6.476 "/>
<path fill="#FFFFFF" d="M95.521,8.639v1.348c0,1.659-3.08,3.55-4.42,4.221c-1.4-0.64-4.625-2.48-4.625-4.221V3.89
	c0.673-0.186,2.833-0.74,4.63-0.74c1.785,0,3.781,0.547,4.415,0.735V5.64l0.591-0.927V3.452l-0.204-0.066
	c-0.104-0.034-2.561-0.827-4.802-0.827c-2.237,0-4.899,0.791-5.011,0.824l-0.21,0.063v6.541c0,2.546,4.895,4.727,5.103,4.818
	l0.125,0.055l0.123-0.06c0.199-0.096,4.877-2.382,4.877-4.813V7.721L95.521,8.639z"/>
<path fill="#FFFFFF" d="M96.667,6.861v3.681c0,1.794-3.286,4.098-5.538,5.241c-1.77-0.832-5.798-3.158-5.798-5.241V2.738
	c1.046-0.28,3.634-0.907,5.81-0.907c2.149,0,4.543,0.615,5.526,0.897v1.116l1.331-2.086V1.75L97.538,1.6
	c-0.138-0.045-3.409-1.1-6.397-1.1c-2.981,0-6.518,1.051-6.667,1.096L84,1.738v8.804c0,3.465,6.169,6.277,6.873,6.586l0.281,0.123
	l0.276-0.133c0.672-0.324,6.567-3.266,6.567-6.576V4.796L96.667,6.861z"/>
<polygon id="arrow_x5F_down_x5F_white_3_" fill="#7D7D7D" points="114.354,5.061 110,0.707 110.707,0 114.354,3.646 118,0 
	118.707,0.707 "/>
<polygon id="arrow_x5F_down_x5F_white_2_" fill="#D7D7D7" points="114.354,13.061 110,8.707 110.707,8 114.354,11.646 118,8 
	118.707,8.707 "/>
<path fill="#C0D73A" d="M243.136,9.982c-0.34-0.111-8.417-2.717-15.78-2.717c-7.352,0-16.1,2.599-16.469,2.71l-0.692,0.208V31.68
	c0,8.366,16.086,15.533,16.771,15.833l0.41,0.181l0.403-0.195c0.655-0.316,16.028-7.829,16.028-15.819V10.201L243.136,9.982z
	 M241.863,31.68c0,5.45-10.122,11.667-14.526,13.871c-4.6-2.102-15.199-8.153-15.199-13.871V11.64
	c2.213-0.61,9.31-2.431,15.218-2.431c5.867,0,12.426,1.797,14.507,2.416V31.68z"/>
<path fill="#C0D73A" d="M248.492,4.116C248.039,3.969,237.29,0.5,227.468,0.5c-9.797,0-21.419,3.454-21.91,3.601L204,4.569v28.933
	c0,11.388,20.276,20.629,22.588,21.646l0.922,0.406l0.908-0.438C230.627,54.049,250,44.383,250,33.502V4.631V4.608L248.492,4.116z
	 M245.627,33.502c0,5.898-10.798,13.466-18.2,17.224c-5.816-2.733-19.055-10.379-19.055-17.224V7.854
	c3.439-0.92,11.942-2.982,19.095-2.982c7.063,0,14.929,2.022,18.16,2.948V33.502z"/>
<path fill="#F68631" d="M243.136,73.49c-0.34-0.111-8.417-2.717-15.78-2.717c-7.352,0-16.1,2.599-16.469,2.71l-0.692,0.208v21.497
	c0,8.366,16.086,15.533,16.771,15.833l0.41,0.181l0.403-0.195c0.655-0.316,16.028-7.829,16.028-15.819V73.709L243.136,73.49z
	 M241.863,95.188c0,5.45-10.122,11.667-14.526,13.871c-4.6-2.102-15.199-8.153-15.199-13.871V75.147
	c2.213-0.61,9.31-2.431,15.218-2.431c5.867,0,12.426,1.797,14.507,2.416V95.188z"/>
<path fill="#F68631" d="M248.492,67.624c-0.453-0.147-11.202-3.616-21.024-3.616c-9.797,0-21.419,3.454-21.91,3.601L204,68.077
	V97.01c0,11.388,20.276,20.629,22.588,21.646l0.922,0.406l0.908-0.438C230.627,117.557,250,107.891,250,97.01V68.139v-0.023
	L248.492,67.624z M245.627,97.01c0,5.898-10.798,13.466-18.2,17.224c-5.816-2.733-19.055-10.379-19.055-17.224V71.362
	c3.439-0.92,11.942-2.982,19.095-2.982c7.063,0,14.929,2.022,18.16,2.948V97.01z"/>
<path fill="#F04E2E" d="M307.136,73.49c-0.34-0.111-8.417-2.717-15.78-2.717c-7.352,0-16.1,2.599-16.469,2.71l-0.692,0.208v21.497
	c0,8.366,16.086,15.533,16.771,15.833l0.41,0.181l0.403-0.195c0.655-0.316,16.028-7.829,16.028-15.819V73.709L307.136,73.49z
	 M305.862,95.188c0,5.45-10.121,11.667-14.526,13.871c-4.6-2.102-15.199-8.153-15.199-13.871V75.147
	c2.213-0.61,9.31-2.431,15.218-2.431c5.867,0,12.426,1.797,14.507,2.416V95.188z"/>
<path fill="#F04E2E" d="M312.491,67.624c-0.452-0.147-11.201-3.616-21.023-3.616c-9.797,0-21.419,3.454-21.91,3.601L268,68.077
	V97.01c0,11.388,20.276,20.629,22.588,21.646l0.922,0.406l0.908-0.438c2.209-1.066,21.583-10.732,21.583-21.613V68.139v-0.023
	L312.491,67.624z M309.628,97.01c0,5.898-10.799,13.466-18.2,17.224c-5.816-2.733-19.055-10.379-19.055-17.224V71.362
	c3.439-0.92,11.942-2.982,19.095-2.982c7.063,0,14.93,2.022,18.16,2.948V97.01z"/>
<linearGradient id="SVGID_2_" gradientUnits="userSpaceOnUse" x1="-336.1533" y1="9.8442" x2="-335.6305" y2="34.4229" gradientTransform="matrix(-1 0 0 1 -34.7422 0)">
	<stop  offset="0" style="stop-color:#C0D73A"/>
	<stop  offset="0.2561" style="stop-color:#BDD43A"/>
	<stop  offset="0.457" style="stop-color:#B5CA39"/>
	<stop  offset="0.6391" style="stop-color:#A6B937"/>
	<stop  offset="0.8101" style="stop-color:#92A235"/>
	<stop  offset="0.9719" style="stop-color:#788433"/>
	<stop  offset="1" style="stop-color:#737E32"/>
</linearGradient>
<polygon fill="url(#SVGID_2_)" points="288.4,34.921 294.642,34.921 314,4.614 308.214,4.28 "/>
<polygon fill="#C0D73A" points="288.351,34.921 294.308,34.921 284.4,20.135 278.444,20.135 "/>
<path fill="#C0D73A" d="M305.854,27.242v4.431c0,5.45-10.119,11.664-14.523,13.868c-4.599-2.102-15.196-8.151-15.196-13.868V11.637
	c2.212-0.61,9.307-2.431,15.215-2.431c5.865,0,12.423,1.797,14.504,2.416v5.765l1.942-3.046v-4.142l-0.67-0.219
	c-0.34-0.111-8.414-2.717-15.776-2.717c-7.351,0-16.097,2.599-16.466,2.709l-0.692,0.208v21.492c0,8.364,16.083,15.53,16.767,15.831
	l0.41,0.18l0.403-0.195c0.655-0.316,16.024-7.827,16.024-15.816v-7.446L305.854,27.242z"/>
<path fill="#C0D73A" d="M309.619,21.401v12.094c0,5.896-10.797,13.463-18.196,17.22c-5.815-2.733-19.051-10.377-19.051-17.22V7.853
	c3.438-0.92,11.94-2.981,19.091-2.981c7.062,0,14.926,2.021,18.157,2.947v3.666l4.371-6.854V4.607l-1.508-0.492
	c-0.453-0.147-11.2-3.615-21.02-3.615c-9.794,0-21.415,3.453-21.905,3.6L268,4.567v28.928c0,11.386,20.271,20.625,22.583,21.641
	l0.922,0.405l0.907-0.438c2.208-1.066,21.578-10.73,21.578-21.608V14.617L309.619,21.401z"/>
<path fill="#D3D3D3" d="M143.791,13.323h-2.32c-0.276,0-0.5-0.224-0.5-0.5s0.224-0.5,0.5-0.5h2.32c0.88,0,1.699-0.339,2.305-0.956
	c0.597-0.606,0.917-1.416,0.904-2.279c0-1.741-1.35-3.166-3.072-3.25l-0.399-0.02l-0.069-0.394C143.013,2.861,140.805,1,138.21,1
	c-2.072,0-3.914,1.164-4.807,3.038l-0.134,0.281l-0.311,0.004C130.776,4.351,129,6.138,129,8.306c0,2.197,1.787,3.984,3.984,3.984
	h1.643c0.276,0,0.5,0.224,0.5,0.5s-0.224,0.5-0.5,0.5h-1.643c-2.748,0-4.984-2.236-4.984-4.984c0-2.609,2.054-4.778,4.637-4.97
	C133.742,1.271,135.85,0,138.21,0c2.953,0,5.484,2.029,6.158,4.876C146.433,5.17,148,6.946,148,9.081
	c0.018,1.125-0.405,2.189-1.191,2.988C146.012,12.877,144.94,13.323,143.791,13.323z"/>
<path fill="#D3D3D3" d="M138.051,18.919l-3.127-3.127c-0.195-0.195-0.195-0.512,0-0.707s0.512-0.195,0.707,0l2.42,2.42l2.41-2.41
	c0.195-0.195,0.512-0.195,0.707,0s0.195,0.512,0,0.707L138.051,18.919z"/>
<path fill="#D3D3D3" d="M138.046,18.263c-0.276,0-0.5-0.224-0.5-0.5V9.245c0-0.276,0.224-0.5,0.5-0.5s0.5,0.224,0.5,0.5v8.518
	C138.546,18.039,138.322,18.263,138.046,18.263z"/>
<path id="Shape_13_" fill="#D3D3D3" d="M372.523,13.488h0.861v2.277h0.483v-2.277h0.863v-0.444h-2.208V13.488z"/>
<path id="Shape_12_" fill="#D3D3D3" d="M352.571,14.332l-0.828-1.288h-0.509v2.721h0.471v-1.943l0.851,1.274h0.016l0.859-1.283
	v1.952h0.478v-2.721H353.4L352.571,14.332z"/>
<path id="Shape_11_" fill="#D3D3D3" d="M356.933,13.025l-1.197,2.74h0.489l0.281-0.657h1.285l0.276,0.657h0.506l-1.197-2.74H356.933
	L356.933,13.025L356.933,13.025L356.933,13.025z M356.68,14.685l0.467-1.088l0.471,1.088H356.68L356.68,14.685L356.68,14.685
	L356.68,14.685z"/>
<path id="Shape_10_" fill="#D3D3D3" d="M362.623,13.912v-0.008c0-0.237-0.081-0.439-0.225-0.587
	c-0.176-0.17-0.442-0.271-0.786-0.271H360.4v2.721h0.478v-0.948h0.6l0.668,0.948h0.567l-0.733-1.03
	C362.354,14.626,362.623,14.358,362.623,13.912C362.623,13.912,362.623,14.358,362.623,13.912L362.623,13.912L362.623,13.912z
	 M360.878,14.393V13.48h0.696c0.354,0,0.564,0.16,0.564,0.451v0.007c0,0.275-0.219,0.455-0.561,0.455H360.878L360.878,14.393
	L360.878,14.393L360.878,14.393z"/>
<path id="Shape_9_" fill="#D3D3D3" d="M382.667,8.086c-0.415,1.087-1.133,1.466-1.634,1.466c-0.396,0-1.252-0.085-1.595-1.078
	c1.443-0.064,2.191-1.554,2.191-2.666c0.053-0.813-0.308-1.499-1.289-1.526c-1.441-0.04-2.063,1.351-2.26,2.417
	c-0.067,0.368-0.053,0.725-0.014,1.017c-0.773-0.311-1.24-1.45-0.719-2.497c0.001-0.002,0.001-0.004,0.002-0.006
	c0.002-0.003,0.003-0.006,0.004-0.009v0c0.104-0.223,0.109-0.343-0.083-0.39c-1.323-0.279-1.505,1.346-1.593,1.959
	c-0.098,0.684-0.223,1.371-0.347,1.754c-0.201,0.613-0.43,0.237-0.555-0.062c-0.346-0.826-0.381-2.339-0.433-4.241
	c-0.041-0.32-1.189,0.064-1.261,0.249c-0.099,0.273-0.332,0.607-0.641,1.463c-0.309,0.856-0.785,1.885-0.935,2.255
	c-0.341,0.84-0.53,0.256-0.575,0.083c-0.211-0.852-0.089-2.621-0.028-4.31c0.002-0.612-1.292,0.111-1.325,0.31
	c-0.015,0.088-0.644,2.932-1.299,4.039c-0.465,0.748-0.678,1.131-1.104,0.168c-0.332-0.75-0.231-2.885,0.196-5.578
	c0.848-0.235,1.577-0.404,2.086-0.503c-0.016,0.402,0.243,0.835,0.854,0.847c0.711,0,1.161-0.319,1.18-0.722
	c0.017-0.369-0.263-0.762-0.779-0.835c-0.045-0.008-0.093-0.014-0.146-0.017c-0.67-0.024-1.902,0.281-3.098,0.645
	c0.103-0.588,0.216-1.195,0.346-1.819l-1.436,0.636c-0.119,0.582-0.226,1.127-0.32,1.64c-0.826,0.283-1.202,0.423-1.393,0.51
	c-0.313,0.148-0.188,0.543,0.066,0.446c0.509-0.188,0.738-0.25,1.23-0.407c-0.278,1.623-0.407,2.886-0.356,3.881
	c-0.003,0.007-0.004,0.02-0.002,0.047c0.103,1.155-0.716,2.501-1.521,1.826c-0.427-0.351-0.515-2.075-0.44-2.732
	c0.03-0.251,0.157-1.173-0.109-1.173c-0.583,0-0.956,3.785-1.944,3.785c-0.282,0.002-0.563-0.273-0.632-0.476
	c-0.354-1.063,0.14-2.737,0.953-3.993c0.458-0.64,0.703-0.624,0.825-0.802c0.21-0.309-0.825-0.727-1.732,0.107
	c-0.585,0.592-1.251,1.58-1.594,3.129c-0.021,0.095-0.135,0.894-0.151,0.956c-0.456,1.452-1.332,1.512-1.868,1.512
	c-0.56,0-0.999-0.372-1.331-0.877c0.73-0.69,2.141-2.023,2.141-3.48c0-1.177-0.385-2.069-1.406-2.069
	c-1.516-0.042-2.297,1.328-2.522,2.75c-0.155,0.985,0.037,1.907,0.102,2.179c0.032,0.135,0.09,0.305,0.176,0.489
	c-0.828,0.807-1.689,1.239-1.942-0.141c-0.143-0.782,0.018-2.381,0.152-3.354c0.062-0.612-0.279-0.741-0.877-0.938
	c-0.599-0.195-0.594-0.177-1.579-0.522c0-0.781-0.386-1.702-1.259-1.466c-0.79,0.182-0.9,1.327,0.325,1.937
	c0,2.631-1.035,5.003-3.366,5.265v0.015c-2.592,0.062-2.358-3.154-2.358-3.339c0.009-2.696,3.064-5.481,3.064-3.095
	c-0.05,0.799,0.902,0.772,1.02-0.244c0.117-1.016-0.878-1.454-2.324-1.45c-1.446,0.004-3.396,2.283-3.405,5.04
	c-0.005,1.378,0.335,4.021,3.767,4.012c0.252-0.001,0.473-0.03,0.679-0.084c2.778-0.526,3.837-3.024,3.837-5.927
	c0.272,0.078,0.427,0.114,0.656,0.195c0.23,0.08,0.384,0.122,0.247,0.934c-0.069,0.605-0.146,1.602-0.146,2.058
	c0,1.251,0.193,2.792,1.872,2.792c0.899,0,1.617-0.347,2.231-0.835c0.341,0.386,1.057,0.873,2.178,0.873
	c1.31,0,1.939-0.789,2.254-1.308c0.187,0.691,0.875,1.259,1.676,1.259c1.009,0,1.783-1.001,1.872-1.158
	c0.064,0.168,0.348,1.156,1.337,1.156c0.688,0,1.237-0.993,1.385-1.468c0.125,0.375,0.297,0.698,0.523,0.974
	c0.002,0.002,0.006,0.007,0.007,0.009c0.341,0.415,0.762,0.509,1.059,0.515c1.354,0.028,2.19-4.134,2.194-4.111
	c-0.088,2.508,0.079,4.085,1.393,4.085c0.646,0,0.892-1.219,1.278-2.336c0.385-1.118,0.743-2.086,0.84-2.402
	c-0.044,0.755,0.002,1.81,0.043,2.105c0.209,1.517,0.693,1.919,1.13,2.294c0.977,0.718,1.627-0.184,2.092-2.02
	c0.09-0.356,0.196-0.667,0.308-0.939c0.083,0.564,0.426,1.391,1.523,1.652c0.197,0.535,0.845,1.593,2.701,1.645
	c1.206,0.034,1.825-0.635,2-0.916C383.112,8.863,382.896,7.395,382.667,8.086C382.667,8.086,382.896,7.395,382.667,8.086
	L382.667,8.086L382.667,8.086z M356.498,4.081c0.467,0,0.497,1.814-0.913,3.252C355.151,6.131,355.95,4.081,356.498,4.081
	C356.498,4.081,355.95,4.081,356.498,4.081L356.498,4.081L356.498,4.081z M379.966,5.307c0.625,0,0.413,2.466-0.76,2.482
	C379.072,6.78,379.565,5.307,379.966,5.307C379.966,5.307,379.565,5.307,379.966,5.307L379.966,5.307L379.966,5.307z"/>
<path id="Shape_8_" fill="#D3D3D3" d="M366.934,13.044h-0.591l-1.294,1.369v-1.369h-0.478v2.721h0.478v-0.79l0.423-0.435l0.93,1.225
	h0.583l-1.187-1.551L366.934,13.044z"/>
<path id="Shape_7_" fill="#D3D3D3" d="M369.231,14.607h1.365v-0.428h-1.365v-0.707h1.538v-0.428h-2.018v2.721h2.037v-0.427h-1.558
	V14.607z"/>
<path fill="#D3D3D3" d="M356.742,36.779c-0.004-0.004-0.005-0.005-0.009-0.01c-0.344-0.367-0.876-0.531-1.725-0.531
	c-0.308,0-0.721,0.022-1.125,0.065l0.004-6.833c0-0.535-0.433-0.97-0.969-0.97h-11.95c-0.534,0-0.969,0.435-0.969,0.97v11.95
	c0,0.536,0.435,0.971,0.969,0.971h3.209c0.063,0.099,0.13,0.195,0.205,0.285c0.848,1.029,2.327,1.553,4.401,1.553
	c1.581,0,3.214-0.294,4.295-0.489l0.396-0.07c1.312-0.227,2.028-0.516,2.478-0.992c0.191-0.072,0.439-0.202,0.536-0.399
	c0.051-0.105,0.058-0.221,0.018-0.331c-0.032-0.085-0.091-0.154-0.16-0.212c0.05-0.07,0.094-0.141,0.13-0.213
	c0.157-0.078,0.32-0.189,0.393-0.342c0.051-0.104,0.058-0.221,0.018-0.327c-0.043-0.114-0.128-0.195-0.229-0.262
	c-0.004-0.068-0.009-0.132-0.018-0.198c0.023-0.037,0.045-0.073,0.064-0.11c0.241-0.082,0.59-0.246,0.719-0.509
	c0.063-0.128,0.068-0.271,0.019-0.402c-0.085-0.232-0.318-0.364-0.563-0.442c0.006-0.03,0.017-0.061,0.042-0.084
	c0.054-0.1,0.13-0.202,0.195-0.318c0.289-0.107,0.673-0.302,0.817-0.603c0.078-0.157,0.087-0.332,0.028-0.493
	C357.79,36.978,357.162,36.829,356.742,36.779z M356.488,38.517l-1.481,0.221l1.422,0.158c0.111,0.342,0.202,0.982-0.382,1.529
	c0,0,0.006,0.016,0.016,0.043l-1.17,0.153l1.24,0.121c0.028,0.195,0.021,0.452-0.123,0.693l-0.976,0.284l0.79-0.02
	c-0.004,0.153-0.15,0.809-2.423,1.203c-2.586,0.449-9.844,2.024-8.72-3.656c1.126-5.683,7.2-8.157,8.438-8.157v5.47
	c-0.67,0.106-1.266,0.223-1.787,0.339c-0.58-0.079-1.962-0.236-2.684-0.014l1.646,0.275c-1.482,0.405-2.124,0.766-2.124,0.766
	c1.722-0.501,3.655-0.797,4.553-0.92c1.527-0.169,3.213-0.06,3.549,0.299C356.846,37.917,356.663,38.32,356.488,38.517z"/>
<path opacity="0.1" fill="#D3D3D3" d="M384.505,38.269c2.437-4.445-0.44-9.643-0.44-9.643c0.147,0.699-0.439,4.403-0.809,4.822
	c-0.365,0.419-1.319,2.585-1.319,2.585c-0.367,0-2.569-2.026-2.569-2.026c-1.025-0.838-2.2-0.559-2.2-0.559
	c-0.589,0-0.881,0.769-0.881,0.769l-0.88,0.14c-0.808-1.397-1.762,0.28-1.762,0.28c-0.366,0.07-1.614,1.467-1.614,1.467
	c-1.162,2.346-2.765,2.758-3.784,2.745c1.089,2.126,0.107,4.073,0.107,4.073l-0.263-0.195c0.308,4.101,1.004,3.37,1.004,3.37
	c0.808,0.909,7.925,1.538,7.925,1.538c3.302,0.769,4.402-0.419,4.623-1.118c0.219-0.699,3.229-3.564,3.229-3.564
	C387.293,41.274,384.505,38.269,384.505,38.269z M380.675,39.434c0,0-1.788,0.157-2.386-0.25c0,0-0.156-0.226-0.331-0.509
	c0.048,0.114,0.076,0.185,0.076,0.185c0.465,1.282-2.119,2.409-2.119,2.41c-1.061,0.782-3.049,0.656-3.049,0.656
	c-2.617-0.469-1.291-2.909-1.291-2.909c0.032-0.531,2.45-2.503,2.45-2.503c1.557-1.594,2.452-0.25,2.452-0.25
	c0.276,0.033,0.687,0.736,1.018,1.402c0-0.004-0.001-0.011-0.001-0.016v-0.093l0,0l0.066-1.658c0,0-0.1-1.5,1.954-0.375
	c0,0,2.386,1.501,2.386,2.784C381.9,38.309,382.032,39.434,380.675,39.434z"/>
<path fill="#D3D3D3" d="M373.911,44.092c0.257-0.316,0.739-1.036,0.63-1.469c0,0,0.874,1.362,0.775,1.581s-0.046,0.045-0.046,0.045
	S374.508,44.342,373.911,44.092z"/>
<path fill="#D3D3D3" d="M374.129,44.237c0.359-0.451,0.779-1.067,0.675-1.658c-0.168,0.05-0.336,0.1-0.504,0.151
	c0.132,0.204,0.254,0.411,0.375,0.619c0.099,0.174,0.194,0.35,0.279,0.53c0.032,0.065,0.061,0.133,0.086,0.202
	c0.005,0.02,0.01,0.039,0.016,0.058c0.017,0.075,0.057-0.084-0.014,0.029c0.14-0.005,0.281-0.012,0.423-0.018
	c-0.002-0.002-0.005-0.002-0.007-0.005c0.021,0.062,0.042,0.125,0.063,0.187c-0.007,0.021-0.007,0.022-0.001,0.005
	c0.055-0.188-0.087-0.36-0.298-0.335c-0.408,0.047-0.839,0.001-1.218-0.145c-0.319-0.122-0.503,0.351-0.187,0.472
	c0.469,0.18,0.996,0.226,1.498,0.168c-0.099-0.111-0.197-0.224-0.296-0.335c-0.033,0.107-0.056,0.225,0.037,0.314
	c0.109,0.108,0.329,0.13,0.421-0.019c0.217-0.353,0.017-0.689-0.157-1.023c-0.164-0.314-0.348-0.619-0.54-0.919
	c-0.148-0.233-0.555-0.143-0.503,0.153c0.079,0.443-0.318,0.947-0.586,1.282C373.486,44.208,373.923,44.496,374.129,44.237z"/>
<path fill="#D3D3D3" d="M383.473,40.162c0,0-1.06-0.439-1.391-0.439c0,0,0.65,1.041,0.646,1.47c0,0.037-0.006,0.067-0.018,0.094
	C382.58,41.631,383.572,40.349,383.473,40.162z"/>
<path fill="#D3D3D3" d="M383.568,39.926c-0.449-0.185-0.968-0.432-1.461-0.454c-0.187-0.008-0.375,0.183-0.267,0.359
	c0.188,0.302,0.358,0.617,0.5,0.942c0.077,0.178,0.136,0.339,0.094,0.53c-0.039,0.172,0.154,0.317,0.323,0.289
	c0.271-0.045,0.49-0.452,0.625-0.644c0.139-0.2,0.441-0.57,0.354-0.832c-0.102-0.305-0.629-0.222-0.525,0.088
	c0.014,0.041-0.191,0.349-0.264,0.456c-0.074,0.106-0.152,0.211-0.234,0.311c-0.035,0.046-0.073,0.092-0.112,0.135
	c-0.071,0.079-0.068-0.024,0.13-0.013c0.059,0.029,0.117,0.059,0.176,0.088c0-0.002,0-0.005-0.002-0.007
	c0.02,0.063,0.041,0.125,0.061,0.187c0.002,0.036,0.023-0.113,0.027-0.146c0.01-0.069-0.008-0.15-0.021-0.218
	c-0.037-0.197-0.125-0.393-0.209-0.576c-0.126-0.277-0.277-0.546-0.438-0.808c-0.09,0.121-0.178,0.24-0.267,0.359
	c0.443,0.019,0.92,0.257,1.324,0.423C383.697,40.527,383.879,40.055,383.568,39.926z"/>
<path opacity="0.25" fill="#D3D3D3" d="M368.695,41.413c0.411-1.207-0.279-2.083-0.812-3.089c0,0-3.11-2.771-3.604-7.55
	c0,0-1.131,9.422,4.1,12.191"/>
<path fill="#D3D3D3" d="M368.825,41.425c0.331-1.472-0.438-2.685-1.406-3.769c-1.739-1.943-2.695-4.402-3.011-6.904
	c-0.019-0.142-0.243-0.125-0.259,0.009c-0.478,4.12,0.006,9.941,4.153,12.306c0.145,0.082,0.295-0.12,0.15-0.202
	c-3.961-2.258-4.354-7.598-4.093-11.528c0.01-0.148,0.023-0.297,0.038-0.445c0.003-0.031,0.007-0.063,0.01-0.095
	c-0.07,0.641-0.135,0.904,0.009,1.571c0.282,1.308,0.852,2.557,1.538,3.717c1.017,1.722,3.11,3.091,2.609,5.316
	C368.529,41.556,368.79,41.578,368.825,41.425L368.825,41.425z"/>
<path fill="#D3D3D3" d="M378.155,38.807c-0.456-1.113-1.164-3.116-2.712-3.196c-0.908-0.046-1.82,1.063-2.432,1.603
	c-0.641,0.566-1.268,1.127-1.623,1.886c-0.793,1.697,0.269,3.02,2.182,2.95c1.497-0.055,5.032-1.298,4.596-3.209
	c-0.035-0.159-0.3-0.115-0.263,0.044c0.413,1.805-3.246,2.876-4.545,2.923c-1.104,0.04-2.032-0.568-1.979-1.68
	c0.021-0.426,0.243-0.764,0.346-1.161c0.176-0.689,1.28-1.408,1.814-1.872c0.669-0.58,1.559-1.619,2.53-1.045
	c0.984,0.581,1.444,1.89,1.845,2.867C377.977,39.066,378.217,38.958,378.155,38.807z"/>
<path opacity="0.1" fill="#D3D3D3" d="M373.544,41.563c-2.418-0.379-1.193-2.351-1.193-2.351c0.03-0.429,2.266-2.022,2.266-2.022
	c1.438-1.289,2.265-0.202,2.265-0.202c0.058,0.006,0.123,0.042,0.193,0.098c-0.234-0.38-0.471-0.678-0.649-0.698
	c0,0-0.875-1.261-2.397,0.235c0,0-2.365,1.85-2.397,2.348c0,0-1.297,2.29,1.264,2.73c0,0,1.109,0.066,2.099-0.217
	C374.232,41.6,373.544,41.563,373.544,41.563z"/>
<path fill="#D3D3D3" d="M377.626,37.57c0.024-0.621-0.017-1.285,0.087-1.892c0.238-1.41,2.704,0.657,3.106,1.039
	c0.888,0.838,1.632,2.461-0.247,2.6c-0.469,0.035-1.913,0.181-2.217-0.264C378.072,38.635,377.626,38.083,377.626,37.57
	c0-0.162-0.265-0.186-0.265-0.024c0,0.606,0.459,1.181,0.794,1.673c0.335,0.492,1.602,0.383,2.109,0.364
	c0.606-0.025,1.394-0.033,1.656-0.667c0.231-0.557,0.067-1.1-0.246-1.599c-0.528-0.835-2.437-2.705-3.674-2.301
	c-0.899,0.293-0.614,1.881-0.64,2.529C377.355,37.708,377.62,37.732,377.626,37.57z"/>
<path opacity="0.1" fill="#D3D3D3" d="M378.121,38.563v-0.09l0.062-1.583c0,0-0.092-1.433,1.806-0.358c0,0,1.037,0.674,1.688,1.495
	c-0.288-1.152-2.162-2.375-2.162-2.375c-1.897-1.075-1.806,0.358-1.806,0.358l-0.063,1.583v0.09
	c-0.021,0.221,0.318,0.805,0.543,1.165C378.144,38.731,378.115,38.629,378.121,38.563z"/>
<path fill="#D3D3D3" d="M373.938,44.249c0,0,0.762-0.938,0.629-1.47c0,0,0.876,1.362,0.776,1.581
	c-0.101,0.219-0.047,0.045-0.047,0.045S374.535,44.5,373.938,44.249z"/>
<path fill="#D3D3D3" d="M383.508,40.117c0,0-1.062-0.438-1.393-0.438c0,0,0.65,1.04,0.645,1.469c0,0.037-0.004,0.068-0.016,0.094
	C382.612,41.586,383.607,40.305,383.508,40.117z"/>
<path fill="#D3D3D3" d="M369.869,43.83c0.334-1.142,1.88-1.197,2.872-1.027c0.169,0.029,0.192-0.222,0.024-0.251
	c-1.109-0.191-2.78-0.065-3.146,1.19C369.574,43.898,369.824,43.987,369.869,43.83L369.869,43.83z"/>
<path fill="#D3D3D3" d="M371.679,42.831c0.991,2.191,4.379,1.912,6.27,1.298c2.334-0.757,5.962-2.065,6.018-4.834
	c0.004-0.161-0.261-0.185-0.265-0.023c-0.074,3.572-9.968,7.466-11.781,3.452C371.852,42.574,371.61,42.682,371.679,42.831
	L371.679,42.831z"/>
<path fill="#D3D3D3" d="M383.244,39.242c0.377-0.06,1.007,0.012,1.27,0.303c0.111,0.125,0.313-0.038,0.203-0.163
	c-0.327-0.363-1.047-0.463-1.521-0.389C383.027,39.021,383.074,39.268,383.244,39.242L383.244,39.242z"/>
<path opacity="0.7" fill="#D3D3D3" d="M379.558,41.475c-0.043-0.488-0.141-1.14,0.43-1.374c-0.054-0.332-0.681,0.078-0.777,0.196
	c-0.111,0.137-0.135,0.287-0.267,0.414c-0.352,0.334-0.806,0.133-1.229,0.104c-0.458-0.032-0.812,0.353-0.179,0.325
	c0.233-0.012,0.341-0.019,0.563,0.072c0.186,0.076,0.313,0.167,0.452,0.297c0.193,0.181,0.473,0.623,0.808,0.409
	C379.493,41.831,379.545,41.618,379.558,41.475z"/>
<path fill="#D3D3D3" d="M376.198,38.447c0.107,0.012,0.748,0.319,0.468,1.077C375.903,39.243,376.037,38.618,376.198,38.447"/>
<path fill="#D3D3D3" d="M378.589,37.76c0.084,0.11-0.135,0.4,0.507,0.878C379.116,38.07,378.99,37.736,378.589,37.76"/>
<path fill="#D3D3D3" d="M385.984,40.97c-0.127-0.888-0.52-1.65-1.052-2.385c-0.393-0.542-0.118-0.613,0.156-1.271
	c0.333-0.804,0.448-1.687,0.516-2.54c0.163-2.065-0.422-4.362-1.42-6.204c-0.07-0.131-0.269-0.065-0.252,0.076
	c0.325,2.683-1.05,4.941-2.1,7.29c0.051-0.113-2.101-1.844-2.389-2.035c-0.579-0.384-1.962-1.028-2.681-0.472
	c-0.139,0.107-0.519,0.664-0.639,0.683c-0.729,0.115-0.631-0.198-1.221-0.405c-0.696-0.244-1.074,0.591-1.498,0.899
	c-1.757,1.272-2.837,4.391-5.299,4.148l0.158,0.221c0.756,0.004,1.536-0.223,2.103-0.646c0.951-0.707,1.338-1.696,2.109-2.52
	c0.402-0.432,0.803-0.717,1.254-1.08c0.405-0.325,0.671-1.477,1.572-0.294c0.026,0.035,0.081,0.05,0.125,0.043
	c0.216-0.034,0.831-0.007,0.967-0.192c0.719-0.97,1.951-1.043,2.907-0.167c0.706,0.647,1.631,1.747,2.587,2.029
	c0.071,0.021,0.143-0.009,0.173-0.075c0.431-0.975,1.051-1.889,1.459-2.86c0.504-1.203,0.604-2.688,0.691-3.963
	c0-0.008-0.001-0.014-0.001-0.022c0.236,0.521,0.428,1.06,0.599,1.602c0.78,2.456,0.739,5.059-0.43,7.392
	c-0.021,0.04-0.007,0.094,0.022,0.126c0.454,0.505,0.797,1.078,1.072,1.686c0.658,1.452-0.229,2.363-1.21,3.322
	c-1.15,1.123-2.088,2.257-2.982,3.542c-1.108,1.6-4.297,0.619-6.021,0.422c-1.058-0.12-2.11-0.267-3.159-0.443
	c-0.854-0.144-2.232-0.264-2.906-0.866c-0.048-0.043-0.132-0.066-0.188-0.013c-0.217,0.203-0.642-1.888-0.661-2.016
	c-0.045-0.32-0.045-0.708-0.038-1.117c-0.046-0.036-0.332-0.011-0.332-0.011c0.031,0.392,0.063,0.781,0.107,1.171
	c0.022,0.196,0.22,2.547,0.995,2.224c0.058-0.023,0.264,0.176,0.567,0.3c0.973,0.397,2.116,0.534,3.153,0.699
	c1.161,0.184,2.332,0.32,3.504,0.441c0.974,0.101,1.954,0.397,2.935,0.311c2.122-0.185,2.371-1.464,3.603-2.816
	C383.818,44.111,386.217,42.596,385.984,40.97z"/>
<polygon fill="#212121" points="79.99,204.49 0,124.5 79.99,124.5 "/>
<path fill="#FFFFFF" d="M72.5,144.419h-2.712v-8.988c0-0.534-0.405-0.834-0.938-0.834H39.387c-0.533,0-1.009,0.3-1.009,0.834v17.542
	c0,0.535,0.476,1.237,1.009,1.237H51.92l-0.419,3.147l-1.408,0.25c-0.091,0.021-0.15,0.079-0.14,0.171
	c0.012,0.093,0.088,0.136,0.181,0.136h8.041v2.971c0,0.33,0.22,0.609,0.552,0.609h1.207h2.042h1.205
	c0.332,0,0.554-0.279,0.554-0.609v-1.181H72.5c0.302,0,0.5-0.255,0.5-0.561v-14.12C73,144.722,72.802,144.419,72.5,144.419z
	 M39.565,152.816v-16.97h29.022v8.572h-6.612c-0.303,0-0.558,0.192-0.558,0.605v5.816h-2.691c-0.332,0-0.552,0.015-0.552,0.346v1.63
	H39.565z M56.947,157.346l-0.419-3.135h1.646v3.294L56.947,157.346z M58.638,159.642v-8.031h4.633v8.031H58.638z M61.409,160.481
	c0,0.27-0.218,0.488-0.489,0.488c-0.269,0-0.488-0.219-0.488-0.488c0-0.271,0.22-0.49,0.488-0.49
	C61.191,159.991,61.409,160.211,61.409,160.481z M67.229,159.259c-0.188,0-0.338-0.151-0.338-0.338c0-0.186,0.15-0.338,0.338-0.338
	s0.338,0.152,0.338,0.338C67.567,159.107,67.417,159.259,67.229,159.259z M72.073,158.316h-8.339v-7.13
	c0-0.331-0.377-0.346-0.71-0.346h-0.785v-5.385h9.834V158.316z"/>
<path id="devices_1_" fill="#7D7D7D" d="M143.509,134.145h-2.663v-8.826c0-0.524-0.398-0.819-0.92-0.819h-28.934
	c-0.524,0-0.991,0.295-0.991,0.819v17.227c0,0.526,0.467,1.215,0.991,1.215h12.308l-0.412,3.09l-1.382,0.246
	c-0.089,0.02-0.148,0.078-0.137,0.168c0.011,0.091,0.086,0.133,0.177,0.133h7.896v2.917c0,0.324,0.216,0.598,0.542,0.598h1.185
	h2.005h1.183c0.327,0,0.544-0.274,0.544-0.598v-1.16h8.608c0.296,0,0.491-0.25,0.491-0.55V134.74
	C144,134.442,143.805,134.145,143.509,134.145z M111.167,142.392v-16.665h28.5v8.418h-6.493c-0.297,0-0.547,0.188-0.547,0.595v5.712
	h-2.643c-0.326,0-0.542,0.015-0.542,0.339v1.601H111.167z M128.236,146.84l-0.411-3.079h1.617v3.234L128.236,146.84z
	 M129.896,149.094v-7.887h4.55v7.887H129.896z M132.617,149.919c0,0.265-0.213,0.479-0.48,0.479c-0.263,0-0.479-0.215-0.479-0.479
	c0-0.266,0.216-0.481,0.479-0.481C132.404,149.438,132.617,149.653,132.617,149.919z M138.333,148.718
	c-0.184,0-0.332-0.148-0.332-0.332c0-0.182,0.148-0.332,0.332-0.332s0.332,0.149,0.332,0.332
	C138.665,148.57,138.518,148.718,138.333,148.718z M143.09,147.792h-8.189v-7.001c0-0.325-0.37-0.339-0.697-0.339h-0.771v-5.288
	h9.657V147.792z"/>
<polygon id="result_1_" fill="#FFFFFF" points="168,124.5 164.66,124.5 160,130.318 163.501,130.318 160.339,135.948 
	167.865,128.864 164.364,128.864 "/>
<polygon id="result_x5F_big_1_" fill="#FFFFFF" points="200,124.5 191.65,124.5 180,139.049 188.751,139.049 180.849,153.122 
	199.666,135.409 190.909,135.409 "/>
<path fill="#FFFFFF" d="M220.5,125.234c0.13,0,0.255,0.072,0.319,0.184l5.397,9.35c0.066,0.115,0.067,0.257,0.003,0.367
	c-0.065,0.113-0.191,0.187-0.322,0.187h-10.795c-0.132,0-0.254-0.07-0.32-0.184c-0.065-0.114-0.065-0.255,0-0.369l5.399-9.352
	C220.247,125.304,220.369,125.234,220.5,125.234 M220.5,124.5c-0.393,0-0.759,0.211-0.954,0.551l-5.398,9.351
	c-0.196,0.339-0.196,0.762,0,1.102s0.563,0.551,0.955,0.551h10.795c0.393,0,0.759-0.211,0.957-0.551
	c0.194-0.34,0.194-0.763-0.001-1.102l-5.398-9.351C221.259,124.711,220.893,124.5,220.5,124.5L220.5,124.5z"/>
<path fill="#FFFFFF" d="M220.807,128.713c0-0.169-0.137-0.307-0.307-0.307s-0.307,0.138-0.307,0.307v2.603
	c0,0.168,0.137,0.306,0.307,0.306s0.307-0.138,0.307-0.306V128.713z"/>
<circle fill="#FFFFFF" cx="220.5" cy="133.497" r="0.429"/>
<path fill="#FFFFFF" d="M253.5,126.026c0.266,0,0.528,0.148,0.662,0.382l11.214,19.417c0.134,0.238,0.135,0.531,0.002,0.758
	c-0.134,0.235-0.396,0.391-0.67,0.391h-22.416c-0.274,0-0.526-0.146-0.667-0.383c-0.134-0.236-0.134-0.528,0-0.765l11.215-19.425
	C252.974,126.171,253.225,126.026,253.5,126.026 M253.5,124.5c-0.816,0-1.572,0.437-1.979,1.146l-11.215,19.418
	c-0.408,0.703-0.408,1.582,0,2.291c0.409,0.703,1.171,1.14,1.986,1.14h22.416c0.815,0,1.578-0.437,1.988-1.14
	c0.406-0.709,0.406-1.588-0.002-2.291l-11.214-19.418C255.079,124.937,254.316,124.5,253.5,124.5L253.5,124.5z"/>
<path fill="#FFFFFF" d="M254.135,133.251c0-0.354-0.281-0.641-0.635-0.641c-0.354,0-0.635,0.287-0.635,0.641v5.405
	c0,0.347,0.281,0.635,0.635,0.635c0.354,0,0.635-0.288,0.635-0.635V133.251z"/>
<path fill="#FFFFFF" d="M253.5,142.295c-0.489,0-0.893,0.397-0.893,0.887c0,0.496,0.404,0.893,0.893,0.893
	c0.49,0,0.894-0.397,0.894-0.893C254.394,142.692,253.989,142.295,253.5,142.295z"/>
<path fill="#7D7D7D" d="M137.398,198.29l-1.259-2.797c1.911-3.31,2.144-7.319,0.605-10.769c-1.305-2.936-3.683-5.174-6.666-6.293
	c-3.03-1.119-6.294-1.025-9.23,0.28c-6.106,2.703-8.857,9.79-6.2,15.802c1.585,3.45,4.708,5.967,8.437,6.76l0.607,1.397
	c-0.047,0.094,0.14,0.514,0.233,0.56l0.373,0.839c0.605,1.399,1.584,2.472,2.796,3.17c0.047,0,0.047,0.047,0.047,0.047
	c0.094,0.186,0.327,0.327,0.56,0.233c0.932,0.466,2.004,0.699,3.077,0.699c0.979,0,1.957-0.233,2.983-0.56
	c2.005-0.932,3.403-2.61,3.963-4.568c0.094-0.14,0.139-0.28,0.094-0.42C138.143,201.273,138.05,199.734,137.398,198.29z
	 M123.786,200.668c-0.046-0.141-0.186-0.234-0.326-0.28c-3.542-0.699-6.525-3.031-7.924-6.293
	c-2.471-5.547,0.093-12.073,5.687-14.59c1.445-0.653,3.029-0.979,4.568-0.979c1.305,0,2.657,0.233,3.916,0.746
	c2.797,1.026,4.941,3.077,6.153,5.78c1.445,3.263,1.212,7.086-0.652,10.163c-0.093,0.14-0.093,0.279-0.047,0.419l0.653,1.491
	l-5.267,2.332l-3.008-6.8c0.654-0.358,1.145-0.923,1.422-1.637c0.327-0.839,0.327-1.725-0.047-2.517
	c-0.093-0.233-0.373-0.327-0.605-0.233c-0.233,0.092-0.327,0.373-0.233,0.605c0.279,0.606,0.279,1.212,0.045,1.818
	c-0.216,0.519-0.637,0.952-1.144,1.235c-0.084-0.012-0.171-0.01-0.254,0.023c-0.08,0.032-0.136,0.09-0.182,0.157
	c-1.128,0.336-2.333-0.212-2.801-1.276c-0.094-0.232-0.373-0.326-0.606-0.232s-0.326,0.372-0.233,0.605
	c0.559,1.259,1.771,1.959,3.029,1.959c0.271,0,0.533-0.044,0.776-0.117l3,6.783l-5.267,2.331L123.786,200.668z M124.859,202.998
	l11.327-5.034c0,0,0.514,1.259,0.607,1.585l-11.188,4.988C125.418,204.256,124.859,202.998,124.859,202.998z M133.295,206.728
	c-1.445,0.605-3.03,0.652-4.428,0.233l7.599-3.357C135.813,204.956,134.741,206.075,133.295,206.728z M136.885,202.438l-9.136,4.057
	c-0.56-0.327-1.119-0.747-1.538-1.212l10.815-4.755C137.072,201.18,137.025,201.832,136.885,202.438z"/>
<path fill="#7D7D7D" d="M126.49,175.355c0.233,0,0.466-0.186,0.466-0.42l0.233-3.916c0.047-0.279-0.14-0.512-0.419-0.512
	c-0.28-0.047-0.513,0.14-0.513,0.419l-0.233,3.917C126.023,175.122,126.21,175.355,126.49,175.355z"/>
<path fill="#7D7D7D" d="M113.811,180.343l-3.077-2.471c-0.187-0.14-0.513-0.093-0.653,0.094c-0.14,0.187-0.094,0.513,0.093,0.652
	l3.077,2.47c0.093,0.047,0.186,0.094,0.279,0.094c0.14,0,0.28-0.046,0.374-0.186C114.044,180.809,113.997,180.483,113.811,180.343z"
	/>
<path fill="#7D7D7D" d="M118.845,176.474c0.093,0.187,0.233,0.279,0.42,0.279c0.046,0,0.092-0.046,0.186-0.046
	c0.233-0.094,0.327-0.373,0.233-0.606l-1.585-3.589c-0.092-0.233-0.373-0.327-0.605-0.233c-0.233,0.094-0.326,0.373-0.233,0.605
	L118.845,176.474z"/>
</svg>
