<?xml version="1.0" encoding="utf-8"?>
<!-- Generator: Adobe Illustrator 15.1.0, SVG Export Plug-In  -->
<!DOCTYPE svg PUBLIC "-//W3C//DTD SVG 1.1//EN" "http://www.w3.org/Graphics/SVG/1.1/DTD/svg11.dtd" [
	<!ENTITY ns_flows "http://ns.adobe.com/Flows/1.0/">
]>
<svg version="1.1"
	 xmlns="http://www.w3.org/2000/svg" xmlns:xlink="http://www.w3.org/1999/xlink" xmlns:a="http://ns.adobe.com/AdobeSVGViewerExtensions/3.0/"
	 x="0px" y="0px" width="67px" height="80px" viewBox="0 0 67 80" enable-background="new 0 0 67 80" xml:space="preserve">
<defs>
</defs>
<path fill="#E74021" d="M56.869,13.778c-0.494-0.161-12.23-3.947-22.93-3.947c-10.684,0-23.396,3.776-23.932,3.938l-1.006,0.302
	v31.238c0,12.157,23.375,22.571,24.37,23.008l0.596,0.262l0.586-0.283c0.951-0.459,23.291-11.376,23.291-22.987V14.097
	L56.869,13.778z M55.02,45.309c0,7.92-14.708,16.953-21.108,20.155c-6.684-3.054-22.086-11.847-22.086-20.155V16.187
	c3.215-0.886,13.527-3.532,22.114-3.532c8.525,0,18.056,2.611,21.081,3.51V45.309z"/>
<path fill="#E74021" d="M64.652,5.255C63.994,5.041,48.374,0,34.102,0C19.866,0,2.976,5.019,2.264,5.232L0,5.912v42.044
	C0,64.505,29.464,77.933,32.823,79.41l1.34,0.59l1.319-0.637c3.209-1.55,31.361-15.596,31.361-31.407V6.003V5.97L64.652,5.255z
	 M60.49,47.957c0,8.57-15.691,19.568-26.447,25.028c-8.451-3.973-27.69-15.083-27.69-25.028v-37.27
	c4.998-1.337,17.354-4.333,27.748-4.333c10.264,0,21.694,2.938,26.389,4.284V47.957z"/>
</svg>
