<?xml version="1.0" encoding="utf-8"?>
<!-- Generator: Adobe Illustrator 15.1.0, SVG Export Plug-In  -->
<!DOCTYPE svg PUBLIC "-//W3C//DTD SVG 1.1//EN" "http://www.w3.org/Graphics/SVG/1.1/DTD/svg11.dtd" [
	<!ENTITY ns_flows "http://ns.adobe.com/Flows/1.0/">
]>
<svg version="1.1"
	 xmlns="http://www.w3.org/2000/svg" xmlns:xlink="http://www.w3.org/1999/xlink" xmlns:a="http://ns.adobe.com/AdobeSVGViewerExtensions/3.0/"
	 x="0px" y="0px" width="201px" height="240px" viewBox="0 0 201 240" enable-background="new 0 0 201 240" xml:space="preserve">
<defs>
</defs>
<path fill="#F08223" d="M170.607,41.335c-1.483-0.484-36.69-11.843-68.791-11.843c-32.052,0-70.187,11.33-71.796,11.814
	l-3.018,0.906v93.715c0,36.471,70.125,67.713,73.11,69.024l1.787,0.786l1.758-0.849c2.854-1.377,69.872-34.13,69.872-68.962V42.291
	L170.607,41.335z M165.059,135.928c0,23.76-44.124,50.857-63.325,60.466c-20.052-9.162-66.259-35.54-66.259-60.466V48.562
	c9.646-2.66,40.583-10.597,66.342-10.597c25.575,0,54.168,7.834,63.242,10.531V135.928z"/>
<path fill="#F08223" d="M193.957,15.764C191.982,15.123,145.123,0,102.305,0C59.598,0,8.929,15.057,6.792,15.698L0,17.737v126.132
	c0,49.646,88.392,89.931,98.47,94.36L102.49,240l3.957-1.911c9.629-4.649,94.085-46.787,94.085-94.22V18.01v-0.1L193.957,15.764z
	 M181.472,143.869c0,25.712-47.075,58.704-79.341,75.085c-25.354-11.917-83.07-45.249-83.07-75.085V32.062
	c14.995-4.012,52.063-13.001,83.244-13.001c30.793,0,65.082,8.815,79.167,12.852V143.869z"/>
</svg>
