<?xml version="1.0" encoding="utf-8"?>
<!-- Generator: Adobe Illustrator 15.1.0, SVG Export Plug-In  -->
<!DOCTYPE svg PUBLIC "-//W3C//DTD SVG 1.1//EN" "http://www.w3.org/Graphics/SVG/1.1/DTD/svg11.dtd" [
	<!ENTITY ns_flows "http://ns.adobe.com/Flows/1.0/">
]>
<svg version="1.1"
	 xmlns="http://www.w3.org/2000/svg" xmlns:xlink="http://www.w3.org/1999/xlink" xmlns:a="http://ns.adobe.com/AdobeSVGViewerExtensions/3.0/"
	 x="0px" y="0px" width="201px" height="240px" viewBox="0 0 201 240" enable-background="new 0 0 201 240" xml:space="preserve">
<defs>
</defs>
<path fill="#CAD51A" d="M170.606,41.335c-1.482-0.483-36.689-11.842-68.79-11.842c-32.051,0-70.187,11.329-71.796,11.813
	l-3.018,0.905v93.716c0,36.471,70.125,67.713,73.109,69.024l1.787,0.786l1.758-0.849c2.854-1.377,69.874-34.13,69.874-68.962V42.291
	L170.606,41.335z M165.058,135.928c0,23.759-44.123,50.857-63.324,60.466c-20.051-9.162-66.259-35.54-66.259-60.466V48.562
	c9.646-2.659,40.583-10.598,66.342-10.598c25.575,0,54.169,7.835,63.241,10.531V135.928z"/>
<path fill="#CAD51A" d="M193.958,15.764C191.982,15.123,145.122,0,102.304,0C59.598,0,8.929,15.057,6.792,15.697L0,17.737v126.132
	c0,49.646,88.392,89.931,98.47,94.36l4.021,1.771l3.956-1.911c9.63-4.649,94.085-46.787,94.085-94.22V18.01v-0.099L193.958,15.764z
	 M181.472,143.869c0,25.712-47.075,58.704-79.341,75.085c-25.354-11.917-83.07-45.249-83.07-75.085V32.062
	c14.995-4.013,52.063-13.001,83.244-13.001c30.794,0,65.083,8.814,79.167,12.852V143.869z"/>
</svg>
