<?xml version="1.0" encoding="utf-8"?>
<!-- Generator: Adobe Illustrator 15.1.0, SVG Export Plug-In  -->
<!DOCTYPE svg PUBLIC "-//W3C//DTD SVG 1.1//EN" "http://www.w3.org/Graphics/SVG/1.1/DTD/svg11.dtd" [
	<!ENTITY ns_flows "http://ns.adobe.com/Flows/1.0/">
]>
<svg version="1.1"
	 xmlns="http://www.w3.org/2000/svg" xmlns:xlink="http://www.w3.org/1999/xlink" xmlns:a="http://ns.adobe.com/AdobeSVGViewerExtensions/3.0/"
	 x="0px" y="0px" width="33px" height="40px" viewBox="0 0 33 40" enable-background="new 0 0 33 40" xml:space="preserve">
<defs>
</defs>
<path fill="#E74021" d="M28.435,6.889c-0.247-0.081-6.115-1.974-11.465-1.974c-5.342,0-11.698,1.888-11.966,1.969L4.5,7.035v15.619
	c0,6.079,11.688,11.286,12.185,11.504l0.298,0.131l0.293-0.142c0.476-0.229,11.645-5.688,11.645-11.494V7.049L28.435,6.889z
	 M27.51,22.654c0,3.96-7.354,8.477-10.554,10.078c-3.342-1.527-11.043-5.924-11.043-10.078V8.094
	C7.52,7.65,12.676,6.327,16.97,6.327c4.262,0,9.028,1.306,10.54,1.755V22.654z"/>
<path fill="#E74021" d="M32.326,2.627C31.997,2.521,24.187,0,17.051,0C9.933,0,1.488,2.51,1.132,2.616L0,2.956v21.022
	c0,8.274,14.732,14.988,16.412,15.727L17.082,40l0.659-0.318c1.604-0.775,15.681-7.798,15.681-15.703V3.002V2.985L32.326,2.627z
	 M30.245,23.979c0,4.285-7.846,9.784-13.224,12.514c-4.226-1.986-13.845-7.541-13.845-12.514V5.344
	c2.499-0.669,8.677-2.167,13.874-2.167c5.132,0,10.847,1.469,13.194,2.142V23.979z"/>
</svg>
