<?xml version="1.0" encoding="utf-8"?>
<!-- Generator: Adobe Illustrator 15.1.0, SVG Export Plug-In  -->
<!DOCTYPE svg PUBLIC "-//W3C//DTD SVG 1.1//EN" "http://www.w3.org/Graphics/SVG/1.1/DTD/svg11.dtd" [
	<!ENTITY ns_flows "http://ns.adobe.com/Flows/1.0/">
]>
<svg version="1.1"
	 xmlns="http://www.w3.org/2000/svg" xmlns:xlink="http://www.w3.org/1999/xlink" xmlns:a="http://ns.adobe.com/AdobeSVGViewerExtensions/3.0/"
	 x="0px" y="0px" width="67px" height="80px" viewBox="0 0 67 80" enable-background="new 0 0 67 80" xml:space="preserve">
<defs>
</defs>
<linearGradient id="SVGID_1_" gradientUnits="userSpaceOnUse" x1="-587.2373" y1="13.582" x2="-586.4774" y2="49.3064" gradientTransform="matrix(-1 0 0 1 -538.6758 0)">
	<stop  offset="0" style="stop-color:#CAD51A"/>
	<stop  offset="0.2639" style="stop-color:#C7D21B"/>
	<stop  offset="0.4709" style="stop-color:#BCC61E"/>
	<stop  offset="0.6586" style="stop-color:#ABB422"/>
	<stop  offset="0.8337" style="stop-color:#949D24"/>
	<stop  offset="1" style="stop-color:#7B8124"/>
</linearGradient>
<polygon fill="url(#SVGID_1_)" points="29.651,50.03 38.722,50.03 66.859,5.98 58.449,5.495 "/>
<polygon fill="#CAD51A" points="29.579,50.03 38.237,50.03 23.837,28.539 15.18,28.539 "/>
<path fill="#CAD51A" d="M55.02,38.869v6.439c0,7.921-14.708,16.953-21.108,20.156c-6.684-3.054-22.087-11.847-22.087-20.156V16.188
	c3.215-0.887,13.528-3.533,22.114-3.533c8.525,0,18.056,2.612,21.081,3.51v8.38l2.824-4.428v-6.02l-0.975-0.318
	C56.375,13.617,44.64,9.83,33.939,9.83c-10.684,0-23.396,3.777-23.932,3.938L9.001,14.07v31.238c0,12.157,23.375,22.571,24.37,23.01
	l0.596,0.262l0.586-0.283c0.951-0.459,23.291-11.376,23.291-22.988V34.486L55.02,38.869z"/>
<path fill="#CAD51A" d="M60.491,30.378v17.579c0,8.57-15.692,19.568-26.447,25.028c-8.452-3.973-27.69-15.083-27.69-25.028V10.687
	c4.999-1.337,17.354-4.333,27.748-4.333c10.265,0,21.694,2.938,26.39,4.284v5.328l6.354-9.962V5.97l-2.191-0.715
	C63.994,5.04,48.375,0,34.102,0C19.866,0,2.976,5.019,2.264,5.232L0,5.912v42.045C0,64.506,29.464,77.934,32.824,79.41l1.34,0.59
	l1.319-0.637c3.21-1.55,31.362-15.596,31.362-31.406V20.518L60.491,30.378z"/>
</svg>
